<svg xmlns="http://www.w3.org/2000/svg" viewBox="0 0 319.29 29.58"><defs><style>.cls-1{fill:none;stroke:#000;stroke-miterlimit:10;stroke-width:0.75px;}</style></defs><g id="BoundingBox"><path d="M158.16,7a22.15,22.15,0,0,1,11.23,3l3.52-6a29.26,29.26,0,0,0-29.5,0l3.52,6A22.18,22.18,0,0,1,158.16,7Z" transform="translate(-4.02)"/><path d="M161.41,10.29a25.27,25.27,0,0,0-11.34,2.48c-.71.33-1.22.61-1.34.43-.24-.38,1.54-1.89,3.44-3,.69-.41,1.08-.76.93-1.07s-1.6-.53-5.4,1.41a21.46,21.46,0,0,0-5.22,4.1l.62.58c.61-.64,1.27-1.24,2-1.83.44-.39,2.52-1.94,2.7-1.47.07.19-.06.46-.79,1.47s-1.07,1.72-.76,2,.66.11,1.53-.37a30.84,30.84,0,0,1,5.9-2.4c3.22-1,4-.59,4.08-.36s-1.39.84-2.26,1.27a38.09,38.09,0,0,0-4.71,3l1.36,2.33c1.45-.85,7-2.24,7.54-1.24s-5.21,5.22-5.21,5.22l3.73,6.42s8.49-9.76,7.13-11.89-6.47-1.74-8.49-1.55c-.55,0-1.2.17-1.34-.1s0-1.52,6.84-3.13c1.51-.36,2.1-.55,2-1.22S162.84,10.3,161.41,10.29Z" transform="translate(-4.02)"/><path d="M184.41,12c.59,0,1,0,1-.39a5.77,5.77,0,0,0-.45-1.38l-.34-.88h-3.38l-.36.84a4,4,0,0,0-.34,1.26c0,.36.26.54.71.55h.36v.39h-2.86V12c.68,0,.93-.34,1.36-1.39l2.58-6.19a13.79,13.79,0,0,0,.57-1.57h1.17A17.79,17.79,0,0,0,185,4.7L187.48,11c.15.42.37,1,.88,1h.28v.39h-4.23ZM183,5.09l-1.57,3.77h3Z" transform="translate(-4.02)"/><path d="M188.77,12h.46c.39,0,.52-.17.52-.9V7c0-.73-.13-.9-.52-.9h-.46V5.75h1.39a5.54,5.54,0,0,0,1.42-.22V6.71h0a2.45,2.45,0,0,1,2.14-1.18,1.67,1.67,0,0,1,1.81,1.18,2.33,2.33,0,0,1,2.21-1.18,1.74,1.74,0,0,1,1.93,1.88v3.67c0,.73.13.9.53.9h.29v.39H197V12h.29c.4,0,.53-.17.53-.9V7.76c0-.65,0-1.41-.85-1.41-1.27,0-1.27,1.46-1.27,2.28v2.45c0,.73.13.9.53.9h.29v.39H193V12h.29c.4,0,.53-.17.53-.9V7.76c0-.65,0-1.41-.85-1.41-1.26,0-1.26,1.46-1.26,2.28v2.45c0,.73.13.9.53.9h.29v.39h-3.71Z" transform="translate(-4.02)"/><path d="M201.3,10.2h.42a2.11,2.11,0,0,0,2.13,1.92,1.2,1.2,0,0,0,1.32-1.07c0-.85-.66-1-1.93-1.33-1-.22-1.94-.55-1.94-1.91,0-1.57,1.14-2.28,2.6-2.28.59,0,1,.22,1.45.22a1.1,1.1,0,0,0,.71-.22h.08V7.66h-.42A1.88,1.88,0,0,0,204,6c-.65,0-1.31.24-1.31,1s.35.77,1.88,1.12c1.17.27,2.07.64,2.07,2.17s-1.3,2.25-2.69,2.25c-.62,0-1.3-.21-1.87-.21a1.23,1.23,0,0,0-.66.21h-.07Z" transform="translate(-4.02)"/><path d="M211.64,6.13h-1.38v4.26c0,.79,0,1.37.6,1.37s.59-.49.6-.95v-.42h.5v.29c0,1.32-.53,1.9-1.73,1.9a1.67,1.67,0,0,1-1.88-1.73V6.13h-.92V5.75a3,3,0,0,0,2.43-2.54h.4V5.75h1.38Z" transform="translate(-4.02)"/><path d="M214.86,9.08v.33c0,1.32.12,2.71,1.62,2.71a1.92,1.92,0,0,0,1.85-2h.58a2.58,2.58,0,0,1-2.85,2.49c-2.1,0-3.26-1.47-3.26-3.53s1.16-3.52,3.26-3.52,3,1.5,3,3.55ZM217,8.69C217,7.27,217,6,216,6s-1.15,1.4-1.15,2.69Z" transform="translate(-4.02)"/><path d="M222.75,11.08c0,.73.13.9.53.9h.61v.39h-4V12h.45c.4,0,.53-.17.53-.9V7c0-.73-.13-.9-.53-.9h-.45V5.75h1.39a5.47,5.47,0,0,0,1.41-.22V7h.05a2.06,2.06,0,0,1,1.77-1.4c.62,0,1.32.26,1.32,1.11,0,.62-.4,1-1.11,1a.82.82,0,0,1-.87-.85c0-.25,0-.31-.16-.31-.37,0-.92.86-.92,2.27Z" transform="translate(-4.02)"/><path d="M231.05,11.4h0a1.88,1.88,0,0,1-2,1.18c-1.85,0-2.54-1.9-2.54-3.5s.64-3.55,2.57-3.55A2,2,0,0,1,231,6.62h0V3.79c0-.65,0-.88-.53-.88H230V2.52h2.84v8.55c0,.79.19.91.53.91h.42v.39h-2.77Zm-1.47.52c1.34,0,1.35-2.13,1.35-3s-.1-2.72-1.36-2.72c-1,0-1,2-1,2.66S228.57,11.92,229.58,11.92Z" transform="translate(-4.02)"/><path d="M241.67,10.53c0,.88,0,2.05-1.64,2.05a1.53,1.53,0,0,1-1.44-.89,2.18,2.18,0,0,1-1.93.89,1.87,1.87,0,0,1-2.08-1.85c0-1.71,1.91-2.29,3.35-2.29h.58V7.07c0-.58-.19-1.07-.89-1.07-.29,0-.9,0-.9.39,0,.15.29.39.29.76A.91.91,0,0,1,236,8a.93.93,0,0,1-1-1c0-1.24,1.73-1.52,2.67-1.52,1.27,0,2.71.34,2.71,1.87v3.94c0,.35.12.5.33.5.42,0,.42-.7.42-1.31Zm-3.16-1.65a1.76,1.76,0,0,0-.4-.06c-1.07,0-1.54.72-1.54,1.89,0,.6.23,1.21.91,1.21.34,0,1-.23,1-1.36Z" transform="translate(-4.02)"/><path d="M242.15,12h.44c.4,0,.53-.17.53-.9V7c0-.73-.13-.9-.53-.9h-.44V5.75h1.38A5.54,5.54,0,0,0,245,5.53V6.71h0a2.44,2.44,0,0,1,2.14-1.18,1.67,1.67,0,0,1,1.81,1.18,2.33,2.33,0,0,1,2.21-1.18,1.75,1.75,0,0,1,1.93,1.88v3.67c0,.73.13.9.53.9h.29v.39h-3.54V12h.29c.39,0,.53-.17.53-.9V7.76c0-.65,0-1.41-.85-1.41C249,6.35,249,7.81,249,8.63v2.45c0,.73.14.9.53.9h.29v.39h-3.54V12h.29c.4,0,.53-.17.53-.9V7.76c0-.65,0-1.41-.85-1.41C245,6.35,245,7.81,245,8.63v2.45c0,.73.14.9.53.9h.29v.39h-3.69Z" transform="translate(-4.02)"/><path d="M267.55,3.34h-.35c-.64,0-.65.36-.65,2.05v4a3.07,3.07,0,0,1-3.36,3.23c-2.45,0-3.73-1.32-3.73-3.28V5.39c0-1.69,0-2-.66-2h-.34V3h4.07v.38h-.35c-.64,0-.66.36-.66,2.05V9.58c0,1.78,1,2.42,2.08,2.42S266,11.08,266,9.16V5.39c0-1.69,0-2-.66-2H265V3h2.59Z" transform="translate(-4.02)"/><path d="M268,12h.45c.4,0,.53-.17.53-.9V7c0-.73-.13-.9-.53-.9H268V5.75h1.39a5.4,5.4,0,0,0,1.41-.22V6.71h0A2.44,2.44,0,0,1,273,5.53a1.74,1.74,0,0,1,1.93,1.88v3.67c0,.73.13.9.53.9h.29v.39h-3.54V12h.29c.4,0,.53-.17.53-.9V7.76c0-.65,0-1.41-.85-1.41-1.27,0-1.27,1.46-1.27,2.28v2.45c0,.73.14.9.53.9h.29v.39H268Z" transform="translate(-4.02)"/><path d="M276.28,12h.45c.4,0,.53-.17.53-.9V7c0-.73-.13-.9-.53-.9h-.45V5.75h1.39a5,5,0,0,0,1.56-.22c-.1,1-.07,2.07-.07,3.08v2.47c0,.73.13.9.53.9h.45v.39h-3.86Zm1.93-9.46a1.11,1.11,0,1,1-1.11,1.11A1.11,1.11,0,0,1,278.21,2.52Z" transform="translate(-4.02)"/><path d="M287.29,6.13c-.49,0-.64.41-.85.91l-1.61,3.9c-.2.49-.38,1-.54,1.51h-.89c-.11-.35-.24-.72-.37-1L281.28,7c-.23-.57-.27-.87-.65-.87h-.23V5.75H284v.38h-.44c-.23,0-.45,0-.45.29a1.67,1.67,0,0,0,.11.45l1.3,3.37h0l1.3-3.3a1.38,1.38,0,0,0,.11-.45c0-.23-.22-.36-.46-.36h-.32V5.75h2.09Z" transform="translate(-4.02)"/><path d="M289.63,9.08v.33c0,1.32.11,2.71,1.62,2.71a1.93,1.93,0,0,0,1.85-2h.58a2.58,2.58,0,0,1-2.85,2.49c-2.1,0-3.27-1.47-3.27-3.53s1.17-3.52,3.27-3.52,3,1.5,3,3.55Zm2.12-.39c0-1.42,0-2.69-1-2.69s-1.14,1.4-1.14,2.69Z" transform="translate(-4.02)"/><path d="M297.41,11.08c0,.73.14.9.53.9h.61v.39h-4V12H295c.4,0,.53-.17.53-.9V7c0-.73-.13-.9-.53-.9h-.45V5.75h1.39a5.54,5.54,0,0,0,1.42-.22V7h.05a2,2,0,0,1,1.77-1.4c.62,0,1.32.26,1.32,1.11,0,.62-.41,1-1.11,1a.81.81,0,0,1-.87-.85c0-.25,0-.31-.16-.31-.37,0-.93.86-.93,2.27Z" transform="translate(-4.02)"/><path d="M301.17,10.2h.42a2.13,2.13,0,0,0,2.13,1.92A1.2,1.2,0,0,0,305,11.05c0-.85-.66-1-1.93-1.33-1-.22-1.94-.55-1.94-1.91,0-1.57,1.15-2.28,2.6-2.28.6,0,1,.22,1.46.22a1.15,1.15,0,0,0,.71-.22H306V7.66h-.43A1.88,1.88,0,0,0,303.83,6c-.65,0-1.31.24-1.31,1s.34.77,1.87,1.12c1.18.27,2.08.64,2.08,2.17s-1.31,2.25-2.7,2.25c-.62,0-1.29-.21-1.86-.21a1.17,1.17,0,0,0-.66.21h-.08Z" transform="translate(-4.02)"/><path d="M307.16,12h.45c.39,0,.53-.17.53-.9V7c0-.73-.14-.9-.53-.9h-.45V5.75h1.39a5.07,5.07,0,0,0,1.56-.22c-.1,1-.07,2.07-.07,3.08v2.47c0,.73.13.9.53.9H311v.39h-3.86Zm1.93-9.46A1.11,1.11,0,1,1,308,3.63,1.12,1.12,0,0,1,309.09,2.52Z" transform="translate(-4.02)"/><path d="M315.7,6.13h-1.39v4.26c0,.79,0,1.37.61,1.37s.58-.49.59-.95v-.42h.5v.29c0,1.32-.53,1.9-1.73,1.9a1.66,1.66,0,0,1-1.87-1.73V6.13h-.93V5.75a3,3,0,0,0,2.43-2.54h.4V5.75h1.39Z" transform="translate(-4.02)"/><path d="M323.31,6.13c-.49,0-.65.41-.85.91l-2.6,6.57c-.48,1.19-.85,1.83-2,1.83a1.28,1.28,0,0,1-1.3-1.18.85.85,0,0,1,.9-.95.77.77,0,0,1,.84.77c0,.32-.21.48-.21.66a.24.24,0,0,0,.24.24c.37,0,.75-.67,1-1.45l.32-.89L317.5,7.12c-.14-.33-.32-1-.72-1h-.29V5.75h3.62v.38h-.24c-.27,0-.59,0-.59.33a1.07,1.07,0,0,0,.08.32l1.28,3.38h0L321.84,7a1.74,1.74,0,0,0,.12-.49c0-.35-.2-.42-.44-.42h-.33V5.75h2.12Z" transform="translate(-4.02)"/><path d="M182,19.72c2.1,0,3.26,1.46,3.26,3.51s-1.16,3.53-3.26,3.53-3.27-1.47-3.27-3.53S179.91,19.72,182,19.72Zm0,6.58c.94,0,1.28-.78,1.28-3.07,0-2.61-.58-3.05-1.28-3.05s-1.28.44-1.28,3.05C180.73,25.52,181.07,26.3,182,26.3Z" transform="translate(-4.02)"/><path d="M187,20.31h-1v-.38h1v-.61c0-1.72.82-2.83,2.62-2.83.87,0,2,.35,2,1.4a.87.87,0,0,1-.92,1,.81.81,0,0,1-.91-.82c0-.56.4-.61.4-.88s-.28-.27-.45-.27c-1-.06-.89,1.16-.89,1.85v1.2h1.26v.38h-1.26v5c0,.72.14.9.53.9h.73v.38h-4.13v-.38h.44c.4,0,.53-.18.53-.9Z" transform="translate(-4.02)"/><path d="M200,26.17c.59,0,1,0,1-.4a5.6,5.6,0,0,0-.45-1.37l-.34-.89h-3.39l-.35.85a3.66,3.66,0,0,0-.35,1.25c0,.36.27.54.72.56h.35v.38h-2.85v-.38c.67,0,.92-.35,1.36-1.39l2.58-6.2a13.13,13.13,0,0,0,.57-1.57h1.17a15.89,15.89,0,0,0,.61,1.88l2.44,6.32c.16.43.37,1,.89,1h.28v.38H200Zm-1.43-6.9L197,23.05h3Z" transform="translate(-4.02)"/><path d="M204.38,29h.45c.42,0,.5-.42.5-1.08V22.19c0-1.4,0-1.88-.6-1.88h-.33v-.38h1.15a6.52,6.52,0,0,0,1.6-.21V21h0a2,2,0,0,1,1.95-1.23c1.93,0,2.57,1.85,2.57,3.54s-.69,3.5-2.54,3.5a2,2,0,0,1-1.9-1.06h0v1.89c0,1.13,0,1.44.54,1.44h.43v.39h-3.82Zm4.24-2.93c1,0,1-2.41,1-3.05s0-2.67-1-2.67c-1.25,0-1.36,1.82-1.36,2.72S207.28,26.1,208.62,26.1Z" transform="translate(-4.02)"/><path d="M212.45,29h.45c.43,0,.51-.42.51-1.08V22.19c0-1.4.05-1.88-.6-1.88h-.33v-.38h1.15a6.52,6.52,0,0,0,1.6-.21V21h0a2,2,0,0,1,2-1.23c1.93,0,2.57,1.85,2.57,3.54s-.69,3.5-2.54,3.5a2,2,0,0,1-1.91-1.06h0v1.89c0,1.13,0,1.44.54,1.44h.42v.39h-3.82Zm4.25-2.93c1,0,1-2.41,1-3.05s0-2.67-1-2.67c-1.26,0-1.36,1.82-1.36,2.72S215.36,26.1,216.7,26.1Z" transform="translate(-4.02)"/><path d="M220.47,26.17h.44c.4,0,.53-.18.53-.9V18c0-.73-.13-.9-.53-.9h-.44v-.38h2.88v8.56c0,.72.13.9.53.9h.44v.38h-3.85Z" transform="translate(-4.02)"/><path d="M224.64,26.17h.45c.4,0,.53-.18.53-.9V21.21c0-.73-.13-.9-.53-.9h-.45v-.38H226a5.35,5.35,0,0,0,1.56-.21c-.09,1-.07,2.06-.07,3.08v2.47c0,.72.14.9.53.9h.45v.38h-3.86Zm1.93-9.46a1.11,1.11,0,1,1-1.11,1.1A1.11,1.11,0,0,1,226.57,16.71Z" transform="translate(-4.02)"/><path d="M231.25,23.26v.33c0,1.32.12,2.71,1.63,2.71a1.92,1.92,0,0,0,1.85-2h.58a2.58,2.58,0,0,1-2.86,2.48c-2.1,0-3.26-1.47-3.26-3.53s1.16-3.51,3.26-3.51,3,1.49,3,3.54Zm2.13-.38c0-1.43,0-2.7-1-2.7s-1.15,1.4-1.15,2.7Z" transform="translate(-4.02)"/><path d="M241.09,25.58h0a1.89,1.89,0,0,1-2,1.18c-1.85,0-2.54-1.9-2.54-3.5s.63-3.54,2.56-3.54A2,2,0,0,1,241,20.8h0V18c0-.64,0-.88-.53-.88h-.41v-.38h2.84v8.54c0,.8.19.92.53.92h.42v.38h-2.77Zm-1.47.52c1.33,0,1.35-2.13,1.35-3s-.11-2.72-1.36-2.72c-1,0-1,2-1,2.67S238.6,26.1,239.62,26.1Z" transform="translate(-4.02)"/><path d="M248.81,24h.5a2.4,2.4,0,0,0,2.54,2.26,1.66,1.66,0,0,0,1.84-1.69c0-2.46-5-1.35-5-4.84a2.83,2.83,0,0,1,3.13-2.84c.75,0,1.55.34,2,.34a.36.36,0,0,0,.39-.26h.42v2.38h-.5a2.12,2.12,0,0,0-2.22-2c-.9,0-1.85.45-1.85,1.48,0,2.29,5,1.1,5,4.92a3,3,0,0,1-3.26,3c-.91,0-1.75-.34-2.26-.34-.24,0-.32.1-.36.26h-.42Z" transform="translate(-4.02)"/><path d="M262.22,24.33a2.44,2.44,0,0,1-2.73,2.43c-2.14,0-3.12-1.61-3.12-3.59a3.21,3.21,0,0,1,3.37-3.45c1.82,0,2.37,1,2.37,1.45a1,1,0,0,1-1,1.07.86.86,0,0,1-.89-.91c0-.38.19-.45.19-.61s-.45-.54-.75-.54c-1.14,0-1.21,1.6-1.21,3.14,0,1.05,0,3,1.46,3,1.2,0,1.66-.89,1.75-2Z" transform="translate(-4.02)"/><path d="M262.86,26.17h.45c.4,0,.53-.18.53-.9V21.21c0-.73-.13-.9-.53-.9h-.45v-.38h1.39a5.35,5.35,0,0,0,1.56-.21c-.09,1-.07,2.06-.07,3.08v2.47c0,.72.13.9.53.9h.45v.38h-3.86Zm1.93-9.46a1.11,1.11,0,1,1-1.11,1.1A1.11,1.11,0,0,1,264.79,16.71Z" transform="translate(-4.02)"/><path d="M269.47,23.26v.33c0,1.32.12,2.71,1.63,2.71a1.92,1.92,0,0,0,1.85-2h.58a2.58,2.58,0,0,1-2.86,2.48c-2.1,0-3.26-1.47-3.26-3.53s1.16-3.51,3.26-3.51,3,1.49,3,3.54Zm2.13-.38c0-1.43,0-2.7-1-2.7s-1.15,1.4-1.15,2.7Z" transform="translate(-4.02)"/><path d="M274.48,26.17h.45c.4,0,.53-.18.53-.9V21.21c0-.73-.13-.9-.53-.9h-.45v-.38h1.39a5.46,5.46,0,0,0,1.41-.21v1.17h0a2.43,2.43,0,0,1,2.14-1.17,1.74,1.74,0,0,1,1.93,1.87v3.68c0,.72.13.9.53.9h.29v.38h-3.54v-.38H279c.39,0,.53-.18.53-.9V21.94c0-.65,0-1.4-.85-1.4-1.27,0-1.27,1.45-1.27,2.27v2.46c0,.72.14.9.53.9h.29v.38h-3.7Z" transform="translate(-4.02)"/><path d="M288.74,24.33A2.45,2.45,0,0,1,286,26.76c-2.14,0-3.12-1.61-3.12-3.59a3.22,3.22,0,0,1,3.37-3.45c1.82,0,2.37,1,2.37,1.45a1,1,0,0,1-1,1.07.86.86,0,0,1-.89-.91c0-.38.19-.45.19-.61s-.45-.54-.75-.54c-1.14,0-1.21,1.6-1.21,3.14,0,1.05,0,3,1.46,3,1.2,0,1.66-.89,1.75-2Z" transform="translate(-4.02)"/><path d="M291.7,23.26v.33c0,1.32.12,2.71,1.62,2.71a1.92,1.92,0,0,0,1.85-2h.59a2.59,2.59,0,0,1-2.86,2.48c-2.1,0-3.26-1.47-3.26-3.53s1.16-3.51,3.26-3.51,3,1.49,3,3.54Zm2.13-.38c0-1.43,0-2.7-1-2.7s-1.15,1.4-1.15,2.7Z" transform="translate(-4.02)"/><path d="M297,24.38h.42a2.12,2.12,0,0,0,2.13,1.92,1.2,1.2,0,0,0,1.32-1.07c0-.85-.66-1-1.93-1.32-1-.23-1.94-.56-1.94-1.92,0-1.57,1.15-2.27,2.6-2.27.6,0,1,.21,1.46.21a1.22,1.22,0,0,0,.71-.21h.08v2.12h-.42a1.9,1.9,0,0,0-1.78-1.66c-.64,0-1.3.24-1.3,1s.34.77,1.87,1.13c1.18.26,2.08.63,2.08,2.16s-1.31,2.25-2.7,2.25c-.62,0-1.29-.21-1.86-.21a1.29,1.29,0,0,0-.66.21H297Z" transform="translate(-4.02)"/><path d="M5.1,12.26H4V3H9.19v1H5.1V7.33H9v1H5.1Z" transform="translate(-4.02)"/><path d="M14.58,12.26l-.21-1h0a3,3,0,0,1-1,.88,3.1,3.1,0,0,1-1.29.23,2.32,2.32,0,0,1-1.63-.53,1.94,1.94,0,0,1-.58-1.52c0-1.4,1.12-2.14,3.37-2.2l1.18,0V7.66A1.78,1.78,0,0,0,14,6.45a1.47,1.47,0,0,0-1.13-.39,4.52,4.52,0,0,0-2,.53l-.32-.81a5.56,5.56,0,0,1,1.12-.44,5.17,5.17,0,0,1,1.23-.15,2.66,2.66,0,0,1,1.85.55,2.31,2.31,0,0,1,.6,1.77v4.75Zm-2.39-.75A2.13,2.13,0,0,0,13.74,11a2,2,0,0,0,.56-1.52V8.84l-1.05,0a3.83,3.83,0,0,0-1.81.39,1.18,1.18,0,0,0-.56,1.08,1.09,1.09,0,0,0,.35.87A1.41,1.41,0,0,0,12.19,11.51Z" transform="translate(-4.02)"/><path d="M21.94,10.36a1.73,1.73,0,0,1-.73,1.5,3.41,3.41,0,0,1-2,.52A4.47,4.47,0,0,1,17,12V11a5.57,5.57,0,0,0,1.08.4,4.33,4.33,0,0,0,1.11.14,2.48,2.48,0,0,0,1.27-.26.87.87,0,0,0,.44-.8.9.9,0,0,0-.35-.7,5.56,5.56,0,0,0-1.38-.68,7.85,7.85,0,0,1-1.38-.63,2,2,0,0,1-.61-.61A1.63,1.63,0,0,1,17,7a1.53,1.53,0,0,1,.7-1.34,3.19,3.19,0,0,1,1.89-.5,5.64,5.64,0,0,1,2.2.46l-.37.86a5,5,0,0,0-1.9-.43,2.14,2.14,0,0,0-1.13.23.72.72,0,0,0-.38.65.82.82,0,0,0,.14.47,1.39,1.39,0,0,0,.46.38,9.52,9.52,0,0,0,1.22.51,4.64,4.64,0,0,1,1.67.91A1.62,1.62,0,0,1,21.94,10.36Z" transform="translate(-4.02)"/><path d="M28.32,12.26V7.76a1.8,1.8,0,0,0-.39-1.27,1.57,1.57,0,0,0-1.21-.42,2,2,0,0,0-1.61.6,3,3,0,0,0-.5,1.95v3.64H23.56V2.38h1.05v3a7.33,7.33,0,0,1-.05.9h.06a2.08,2.08,0,0,1,.89-.79,2.78,2.78,0,0,1,1.31-.29,2.68,2.68,0,0,1,1.91.6,2.55,2.55,0,0,1,.64,1.93v4.54Z" transform="translate(-4.02)"/><path d="M31.36,3.41a.67.67,0,0,1,.18-.52A.58.58,0,0,1,32,2.72a.6.6,0,0,1,.44.17.68.68,0,0,1,.18.52.69.69,0,0,1-.18.53.6.6,0,0,1-.44.18.59.59,0,0,1-.44-.18A.69.69,0,0,1,31.36,3.41Zm1.14,8.85H31.45v-7H32.5Z" transform="translate(-4.02)"/><path d="M40.64,8.77a3.85,3.85,0,0,1-.85,2.66,3,3,0,0,1-2.37,1A3.19,3.19,0,0,1,35.76,12a2.91,2.91,0,0,1-1.11-1.26,4.31,4.31,0,0,1-.4-1.92,3.87,3.87,0,0,1,.85-2.65,3,3,0,0,1,2.36-1,3,3,0,0,1,2.32,1A3.81,3.81,0,0,1,40.64,8.77Zm-5.3,0a3.25,3.25,0,0,0,.54,2,1.84,1.84,0,0,0,1.57.7A1.87,1.87,0,0,0,39,10.81a3.35,3.35,0,0,0,.53-2,3.28,3.28,0,0,0-.53-2,1.9,1.9,0,0,0-1.59-.69,1.83,1.83,0,0,0-1.56.68A3.27,3.27,0,0,0,35.34,8.77Z" transform="translate(-4.02)"/><path d="M47.2,12.26V7.76a1.8,1.8,0,0,0-.39-1.27,1.57,1.57,0,0,0-1.21-.42,2,2,0,0,0-1.6.59,3,3,0,0,0-.51,1.95v3.65H42.44v-7h.86l.17,1h.05a2.07,2.07,0,0,1,.91-.79,2.89,2.89,0,0,1,1.3-.29,2.68,2.68,0,0,1,1.89.61,2.59,2.59,0,0,1,.63,1.94v4.54Z" transform="translate(-4.02)"/><path d="M55,8.4v3.86H54V3H56.5A4,4,0,0,1,59,3.63a2.36,2.36,0,0,1,.82,2A2.47,2.47,0,0,1,58,8.09l2.52,4.17H59.21L57,8.4Zm0-.93h1.48A2.59,2.59,0,0,0,58.19,7a1.72,1.72,0,0,0,.53-1.36,1.55,1.55,0,0,0-.54-1.33,3,3,0,0,0-1.75-.41H55Z" transform="translate(-4.02)"/><path d="M64.65,12.38a3.2,3.2,0,0,1-2.44-.94,3.63,3.63,0,0,1-.89-2.6,4.05,4.05,0,0,1,.83-2.68,2.75,2.75,0,0,1,2.23-1A2.61,2.61,0,0,1,66.44,6a3.3,3.3,0,0,1,.77,2.27V9h-4.8A2.75,2.75,0,0,0,63,10.83a2.16,2.16,0,0,0,1.66.63A5.47,5.47,0,0,0,66.91,11v.94a5.7,5.7,0,0,1-1.06.35A5.91,5.91,0,0,1,64.65,12.38Zm-.29-6.32A1.71,1.71,0,0,0,63,6.6a2.5,2.5,0,0,0-.59,1.51h3.64a2.28,2.28,0,0,0-.45-1.52A1.54,1.54,0,0,0,64.36,6.06Z" transform="translate(-4.02)"/><path d="M73.5,10.36a1.74,1.74,0,0,1-.72,1.5,3.41,3.41,0,0,1-2,.52A4.47,4.47,0,0,1,68.59,12V11a5.34,5.34,0,0,0,1.08.4,4.31,4.31,0,0,0,1.1.14A2.43,2.43,0,0,0,72,11.25a.86.86,0,0,0,.45-.8.9.9,0,0,0-.35-.7,5.76,5.76,0,0,0-1.38-.68,7.2,7.2,0,0,1-1.38-.63,2,2,0,0,1-.61-.61,1.63,1.63,0,0,1-.2-.82,1.54,1.54,0,0,1,.69-1.34,3.24,3.24,0,0,1,1.9-.5,5.67,5.67,0,0,1,2.2.46L73,6.49a5,5,0,0,0-1.89-.43A2.14,2.14,0,0,0,70,6.29a.72.72,0,0,0-.38.65.75.75,0,0,0,.14.47,1.3,1.3,0,0,0,.46.38,9.52,9.52,0,0,0,1.22.51,4.64,4.64,0,0,1,1.67.91A1.61,1.61,0,0,1,73.5,10.36Z" transform="translate(-4.02)"/><path d="M78.17,12.38a3.16,3.16,0,0,1-2.43-.94,3.58,3.58,0,0,1-.89-2.6,4,4,0,0,1,.82-2.68,2.77,2.77,0,0,1,2.23-1A2.64,2.64,0,0,1,80,6a3.3,3.3,0,0,1,.76,2.27V9H75.94a2.75,2.75,0,0,0,.62,1.86,2.14,2.14,0,0,0,1.65.63A5.47,5.47,0,0,0,80.43,11v.94a5.47,5.47,0,0,1-1.06.35A5.91,5.91,0,0,1,78.17,12.38Zm-.28-6.32a1.73,1.73,0,0,0-1.34.54A2.56,2.56,0,0,0,76,8.11H79.6a2.33,2.33,0,0,0-.44-1.52A1.55,1.55,0,0,0,77.89,6.06Z" transform="translate(-4.02)"/><path d="M86.72,12.26l-.21-1h-.05a2.91,2.91,0,0,1-1,.88,3,3,0,0,1-1.29.23,2.29,2.29,0,0,1-1.62-.53,1.94,1.94,0,0,1-.59-1.52c0-1.4,1.13-2.14,3.37-2.2l1.18,0V7.66a1.73,1.73,0,0,0-.35-1.21A1.45,1.45,0,0,0,85,6.06a4.48,4.48,0,0,0-2,.53l-.33-.81a5.65,5.65,0,0,1,1.13-.44,5.17,5.17,0,0,1,1.23-.15,2.63,2.63,0,0,1,1.84.55,2.31,2.31,0,0,1,.6,1.77v4.75Zm-2.38-.75A2.15,2.15,0,0,0,85.89,11a2,2,0,0,0,.56-1.52V8.84l-1.06,0a3.86,3.86,0,0,0-1.81.39A1.18,1.18,0,0,0,83,10.35a1.09,1.09,0,0,0,.34.87A1.44,1.44,0,0,0,84.34,11.51Z" transform="translate(-4.02)"/><path d="M92.78,5.17a4.17,4.17,0,0,1,.83.08l-.15,1a3.24,3.24,0,0,0-.76-.1,1.85,1.85,0,0,0-1.44.69,2.47,2.47,0,0,0-.6,1.7v3.74H89.6v-7h.87l.12,1.29h0a3.11,3.11,0,0,1,.94-1A2.13,2.13,0,0,1,92.78,5.17Z" transform="translate(-4.02)"/><path d="M97.58,12.38a3,3,0,0,1-2.34-.93,3.82,3.82,0,0,1-.83-2.63,3.92,3.92,0,0,1,.84-2.69,3,3,0,0,1,2.4-1,4.86,4.86,0,0,1,1,.11,3,3,0,0,1,.79.26l-.33.89a4.87,4.87,0,0,0-.76-.23,3.45,3.45,0,0,0-.73-.09c-1.41,0-2.12.9-2.12,2.7a3.26,3.26,0,0,0,.52,2,1.8,1.8,0,0,0,1.53.68,4.7,4.7,0,0,0,1.79-.37V12A3.83,3.83,0,0,1,97.58,12.38Z" transform="translate(-4.02)"/><path d="M105.7,12.26V7.76a1.8,1.8,0,0,0-.38-1.27,1.6,1.6,0,0,0-1.22-.42,2,2,0,0,0-1.6.6,3,3,0,0,0-.5,1.95v3.64h-1.06V2.38H102v3a7.33,7.33,0,0,1,0,.9H102a2.08,2.08,0,0,1,.89-.79,2.78,2.78,0,0,1,1.31-.29,2.7,2.7,0,0,1,1.91.6,2.55,2.55,0,0,1,.64,1.93v4.54Z" transform="translate(-4.02)"/><path d="M111.9,9.85a2.52,2.52,0,0,1,.44-1.46,4.75,4.75,0,0,1,1.58-1.28,8.06,8.06,0,0,1-.73-.91,3.51,3.51,0,0,1-.31-.65,2.38,2.38,0,0,1-.11-.7,1.87,1.87,0,0,1,.62-1.49,2.61,2.61,0,0,1,1.73-.53,2.34,2.34,0,0,1,1.62.53,1.87,1.87,0,0,1,.59,1.48,2,2,0,0,1-.43,1.25,5,5,0,0,1-1.43,1.17l2.59,2.48a3.07,3.07,0,0,0,.56-.93A6.45,6.45,0,0,0,119,7.66h1.07a6.09,6.09,0,0,1-1.3,2.75l1.9,1.85h-1.46L118,11.13a4.5,4.5,0,0,1-3.25,1.25,3.06,3.06,0,0,1-2.12-.67A2.38,2.38,0,0,1,111.9,9.85Zm2.89,1.59a3.51,3.51,0,0,0,2.54-1l-2.77-2.69a7.31,7.31,0,0,0-1,.71,1.89,1.89,0,0,0-.43.61,1.91,1.91,0,0,0-.14.74,1.51,1.51,0,0,0,.49,1.17A1.92,1.92,0,0,0,114.79,11.44Zm-1-6.62a1.69,1.69,0,0,0,.23.84,5,5,0,0,0,.78,1A3.87,3.87,0,0,0,116,5.73a1.43,1.43,0,0,0,.32-.92A1,1,0,0,0,116,4a1.2,1.2,0,0,0-.87-.31,1.33,1.33,0,0,0-.92.31A1,1,0,0,0,113.81,4.82Z" transform="translate(-4.02)"/><path d="M14.5,26.46H13.42V18.14H10.48v-1h7v1H14.5Z" transform="translate(-4.02)"/><path d="M20.6,26.59a3.2,3.2,0,0,1-2.43-.94A3.63,3.63,0,0,1,17.28,23a4.07,4.07,0,0,1,.82-2.68,2.77,2.77,0,0,1,2.23-1,2.64,2.64,0,0,1,2.07.86,3.3,3.3,0,0,1,.76,2.27v.67H18.37A2.7,2.7,0,0,0,19,25a2.14,2.14,0,0,0,1.65.63,5.63,5.63,0,0,0,2.22-.46v.93a4.86,4.86,0,0,1-1.06.35A5.84,5.84,0,0,1,20.6,26.59Zm-.28-6.33A1.73,1.73,0,0,0,19,20.8a2.56,2.56,0,0,0-.59,1.51H22a2.33,2.33,0,0,0-.44-1.52A1.55,1.55,0,0,0,20.32,20.26Z" transform="translate(-4.02)"/><path d="M27.76,26.59a3,3,0,0,1-2.34-.93A3.85,3.85,0,0,1,24.59,23a3.92,3.92,0,0,1,.84-2.69,3,3,0,0,1,2.4-1,4.86,4.86,0,0,1,1,.11,3.16,3.16,0,0,1,.79.26l-.33.89a4.87,4.87,0,0,0-.76-.23,3.45,3.45,0,0,0-.73-.09c-1.41,0-2.12.9-2.12,2.7a3.19,3.19,0,0,0,.52,2,1.77,1.77,0,0,0,1.53.68,4.7,4.7,0,0,0,1.79-.37v.93A3.85,3.85,0,0,1,27.76,26.59Z" transform="translate(-4.02)"/><path d="M35.88,26.46V22a1.8,1.8,0,0,0-.39-1.27,1.56,1.56,0,0,0-1.21-.42,2,2,0,0,0-1.6.6,3,3,0,0,0-.5,1.95v3.64H31.12V16.58h1.06v3a5.62,5.62,0,0,1-.06.9h.07a2.11,2.11,0,0,1,.88-.79,2.8,2.8,0,0,1,1.31-.29,2.73,2.73,0,0,1,1.92.6,2.59,2.59,0,0,1,.64,1.93v4.54Z" transform="translate(-4.02)"/><path d="M43.79,26.46V22a1.8,1.8,0,0,0-.39-1.27,1.57,1.57,0,0,0-1.21-.42,2,2,0,0,0-1.6.59,3,3,0,0,0-.51,1.95v3.65H39v-7h.86l.17.95h0a2.07,2.07,0,0,1,.91-.79,2.92,2.92,0,0,1,1.3-.29,2.65,2.65,0,0,1,1.89.61,2.59,2.59,0,0,1,.63,1.94v4.54Z" transform="translate(-4.02)"/><path d="M53,23a3.85,3.85,0,0,1-.85,2.66,3,3,0,0,1-2.37,1,3.17,3.17,0,0,1-1.66-.44A2.85,2.85,0,0,1,47,24.89a4.28,4.28,0,0,1-.4-1.92,3.89,3.89,0,0,1,.85-2.65,3,3,0,0,1,2.36-.95,2.93,2.93,0,0,1,2.32,1A3.76,3.76,0,0,1,53,23Zm-5.3,0a3.25,3.25,0,0,0,.54,2,1.82,1.82,0,0,0,1.56.7A1.89,1.89,0,0,0,51.35,25a3.35,3.35,0,0,0,.53-2,3.28,3.28,0,0,0-.53-2,1.9,1.9,0,0,0-1.59-.69A1.86,1.86,0,0,0,48.2,21,3.27,3.27,0,0,0,47.67,23Z" transform="translate(-4.02)"/><path d="M55.84,26.46H54.78V16.58h1.06Z" transform="translate(-4.02)"/><path d="M64,23a3.85,3.85,0,0,1-.86,2.66,3,3,0,0,1-2.37,1,3.13,3.13,0,0,1-1.65-.44A2.81,2.81,0,0,1,58,24.89,4.42,4.42,0,0,1,57.64,23a3.84,3.84,0,0,1,.85-2.65,3,3,0,0,1,2.36-.95,3,3,0,0,1,2.32,1A3.81,3.81,0,0,1,64,23Zm-5.3,0a3.32,3.32,0,0,0,.53,2,1.85,1.85,0,0,0,1.57.7A1.87,1.87,0,0,0,62.4,25a3.29,3.29,0,0,0,.54-2,3.21,3.21,0,0,0-.54-2,2.15,2.15,0,0,0-3.15,0A3.27,3.27,0,0,0,58.73,23Z" transform="translate(-4.02)"/><path d="M71.51,19.5v.67l-1.29.15a2.32,2.32,0,0,1,.45,1.39A2.06,2.06,0,0,1,70,23.34a2.82,2.82,0,0,1-1.92.61,3.7,3.7,0,0,1-.59-.05,1.06,1.06,0,0,0-.67.9.45.45,0,0,0,.24.42,1.7,1.7,0,0,0,.8.13h1.23a2.73,2.73,0,0,1,1.74.48,1.67,1.67,0,0,1,.61,1.38A2,2,0,0,1,70.49,29a4.91,4.91,0,0,1-2.7.61,3.7,3.7,0,0,1-2.11-.51,1.72,1.72,0,0,1-.33-2.53,2.06,2.06,0,0,1,1.14-.63,1.07,1.07,0,0,1-.45-.37,1,1,0,0,1-.18-.59,1.09,1.09,0,0,1,.21-.67,2,2,0,0,1,.64-.55,1.85,1.85,0,0,1-.88-.76,2.18,2.18,0,0,1-.34-1.22A2.28,2.28,0,0,1,66.17,20a2.83,2.83,0,0,1,2-.62,3.69,3.69,0,0,1,1,.13ZM66,27.63a.94.94,0,0,0,.47.85,2.6,2.6,0,0,0,1.37.3,3.83,3.83,0,0,0,2-.4,1.21,1.21,0,0,0,.64-1.08.85.85,0,0,0-.35-.78,2.64,2.64,0,0,0-1.31-.22H67.47a1.64,1.64,0,0,0-1.11.34A1.23,1.23,0,0,0,66,27.63Zm.57-5.9a1.42,1.42,0,0,0,.41,1.1,1.66,1.66,0,0,0,1.15.38,1.34,1.34,0,0,0,1.54-1.5,1.38,1.38,0,0,0-1.56-1.57,1.58,1.58,0,0,0-1.14.4A1.6,1.6,0,0,0,66.53,21.73Z" transform="translate(-4.02)"/><path d="M72.4,19.5h1.13l1.52,4a13.93,13.93,0,0,1,.62,2h0c.06-.22.17-.59.35-1.11s.75-2.13,1.72-4.82h1.13l-3,7.92a3.93,3.93,0,0,1-1,1.67,2.2,2.2,0,0,1-1.46.49,3.8,3.8,0,0,1-1-.11v-.84a3.67,3.67,0,0,0,.78.08,1.62,1.62,0,0,0,1.55-1.22l.38-1Z" transform="translate(-4.02)"/><path d="M87.67,21.6h3.16v4.51a9.88,9.88,0,0,1-1.5.35,10.32,10.32,0,0,1-1.77.13,4.26,4.26,0,0,1-3.28-1.26,4.94,4.94,0,0,1-1.17-3.51,5.29,5.29,0,0,1,.58-2.54,3.93,3.93,0,0,1,1.67-1.66A5.46,5.46,0,0,1,87.92,17a7.09,7.09,0,0,1,2.77.55l-.42.95A6.31,6.31,0,0,0,87.85,18a3.49,3.49,0,0,0-2.65,1,3.92,3.92,0,0,0-1,2.8,4,4,0,0,0,.92,2.85,3.52,3.52,0,0,0,2.69,1,8,8,0,0,0,1.89-.22V22.56H87.67Z" transform="translate(-4.02)"/><path d="M96.11,19.37a4.1,4.1,0,0,1,.83.08l-.14,1a3.32,3.32,0,0,0-.77-.1,1.85,1.85,0,0,0-1.44.69,2.5,2.5,0,0,0-.6,1.71v3.73h-1v-7h.87l.12,1.29h0a3.19,3.19,0,0,1,.93-1.05A2.13,2.13,0,0,1,96.11,19.37Z" transform="translate(-4.02)"/><path d="M104.14,23a3.85,3.85,0,0,1-.86,2.66,3,3,0,0,1-2.37,1,3.13,3.13,0,0,1-1.65-.44,2.81,2.81,0,0,1-1.12-1.26A4.42,4.42,0,0,1,97.75,23a3.84,3.84,0,0,1,.85-2.65,3,3,0,0,1,2.36-.95,3,3,0,0,1,2.32,1A3.81,3.81,0,0,1,104.14,23Zm-5.3,0a3.26,3.26,0,0,0,.53,2,1.85,1.85,0,0,0,1.57.7,1.87,1.87,0,0,0,1.57-.69,3.29,3.29,0,0,0,.54-2,3.21,3.21,0,0,0-.54-2,2.15,2.15,0,0,0-3.15,0A3.27,3.27,0,0,0,98.84,23Z" transform="translate(-4.02)"/><path d="M106.93,19.5V24a1.8,1.8,0,0,0,.39,1.27,1.57,1.57,0,0,0,1.21.42,2,2,0,0,0,1.6-.59,3,3,0,0,0,.5-1.95V19.5h1.06v7h-.87l-.15-.93h-.06a2.14,2.14,0,0,1-.9.78,3,3,0,0,1-1.31.28,2.66,2.66,0,0,1-1.9-.61,2.56,2.56,0,0,1-.63-1.93V19.5Z" transform="translate(-4.02)"/><path d="M117.06,26.59a3,3,0,0,1-1.24-.26,2.19,2.19,0,0,1-.94-.77h-.08a9.56,9.56,0,0,1,.08,1.16v2.86h-1.06V19.5h.86l.15.95h0a2.42,2.42,0,0,1,.94-.82,2.86,2.86,0,0,1,1.24-.26,2.6,2.6,0,0,1,2.14.95A4.18,4.18,0,0,1,120,23a4.16,4.16,0,0,1-.77,2.67A2.57,2.57,0,0,1,117.06,26.59Zm-.15-6.32a1.86,1.86,0,0,0-1.54.59,3,3,0,0,0-.49,1.88V23a3.45,3.45,0,0,0,.49,2.1,1.84,1.84,0,0,0,1.56.63,1.65,1.65,0,0,0,1.42-.73,3.43,3.43,0,0,0,.51-2,3.36,3.36,0,0,0-.51-2A1.7,1.7,0,0,0,116.91,20.27Z" transform="translate(-4.02)"/><line class="cls-1" x1="127.73" x2="127.73" y2="29.26"/></g></svg>